<svg width="992" height="771" viewBox="0 0 992 771" fill="none" xmlns="http://www.w3.org/2000/svg">
<g clip-path="url(#clip0)">
<path d="M289.581 0L131.728 85.5022C134.427 90.1493 136.166 95.2908 136.842 100.622C137.517 105.954 137.116 111.367 135.662 116.54C134.207 121.714 131.729 126.543 128.374 130.741C125.019 134.939 120.855 138.421 116.13 140.981C111.404 143.54 106.213 145.125 100.864 145.642C95.5147 146.158 90.1162 145.596 84.9883 143.988C79.8604 142.38 75.1075 139.758 71.0112 136.28C66.9149 132.801 63.5585 128.536 61.1409 123.736L7.31747 152.89L146.737 410.284L429 257.394L289.581 0Z" fill="#F2F2F2"/>
<path d="M94.6036 138.255C112.601 138.255 127.191 123.665 127.191 105.668C127.191 87.6704 112.601 73.0806 94.6036 73.0806C76.6061 73.0806 62.0162 87.6704 62.0162 105.668C62.0162 123.665 76.6061 138.255 94.6036 138.255Z" fill="#C4321D"/>
<path d="M685.955 689.064L856.627 633.393C854.809 628.336 854.024 622.965 854.32 617.599C854.615 612.233 855.985 606.981 858.348 602.154C860.71 597.327 864.018 593.024 868.074 589.499C872.13 585.973 876.853 583.298 881.962 581.632C887.072 579.965 892.463 579.341 897.818 579.797C903.173 580.252 908.382 581.778 913.136 584.283C917.89 586.788 922.093 590.223 925.496 594.382C928.899 598.542 931.432 603.342 932.946 608.499L991.14 589.516L900.363 311.22L595.178 410.767L685.955 689.064Z" fill="#F2F2F2"/>
<path d="M896.776 652.831C914.773 652.831 929.363 638.241 929.363 620.244C929.363 602.246 914.773 587.657 896.776 587.657C878.778 587.657 864.188 602.246 864.188 620.244C864.188 638.241 878.778 652.831 896.776 652.831Z" fill="#C4321D"/>
<path d="M903.5 152.678H115.5V510.678H903.5V152.678Z" fill="#3F3D56"/>
<path d="M890.5 165.678H128.5V490.678H890.5V165.678Z" fill="white"/>
<path d="M813 475.178H739V500.178H813V475.178Z" fill="#3F3D56"/>
<path d="M735 494.178H681V501.178H735V494.178Z" fill="#C4321D"/>
<path d="M190.5 288.678H481.5L526.616 310.657L598.5 345.678L645.5 257.678H778.5" stroke="#3F3D56" stroke-width="2" stroke-miterlimit="10"/>
<path d="M304.925 288.678L326.5 339.678H379.5" stroke="#3F3D56" stroke-width="2" stroke-miterlimit="10"/>
<path d="M385.807 288.678L459.5 248.678H511.5" stroke="#3F3D56" stroke-width="2" stroke-miterlimit="10"/>
<path d="M304.5 297.678C309.471 297.678 313.5 293.648 313.5 288.678C313.5 283.707 309.471 279.678 304.5 279.678C299.529 279.678 295.5 283.707 295.5 288.678C295.5 293.648 299.529 297.678 304.5 297.678Z" fill="#C4321D"/>
<path d="M388.5 297.678C393.471 297.678 397.5 293.648 397.5 288.678C397.5 283.707 393.471 279.678 388.5 279.678C383.529 279.678 379.5 283.707 379.5 288.678C379.5 293.648 383.529 297.678 388.5 297.678Z" fill="#C4321D"/>
<path d="M526.5 310.678L532.5 399.678H584.5" stroke="#3F3D56" stroke-width="2" stroke-miterlimit="10"/>
<path d="M626.65 292.971L569.5 248.678H623.5" stroke="#3F3D56" stroke-width="2" stroke-miterlimit="10"/>
<path d="M721.051 257.678L776.5 301.678H828.5" stroke="#3F3D56" stroke-width="2" stroke-miterlimit="10"/>
<path d="M526.5 319.678C531.471 319.678 535.5 315.648 535.5 310.678C535.5 305.707 531.471 301.678 526.5 301.678C521.529 301.678 517.5 305.707 517.5 310.678C517.5 315.648 521.529 319.678 526.5 319.678Z" fill="#C4321D"/>
<path d="M720.5 266.678C725.471 266.678 729.5 262.648 729.5 257.678C729.5 252.707 725.471 248.678 720.5 248.678C715.529 248.678 711.5 252.707 711.5 257.678C711.5 262.648 715.529 266.678 720.5 266.678Z" fill="#C4321D"/>
<path d="M626.5 301.678C631.471 301.678 635.5 297.648 635.5 292.678C635.5 287.707 631.471 283.678 626.5 283.678C621.529 283.678 617.5 287.707 617.5 292.678C617.5 297.648 621.529 301.678 626.5 301.678Z" fill="#C4321D"/>
<path d="M327.5 347.678H379.5" stroke="#3F3D56" stroke-width="2" stroke-miterlimit="10"/>
<path d="M809.542 90.2853C817.691 90.2853 824.298 83.679 824.298 75.5297C824.298 67.3805 817.691 60.7742 809.542 60.7742C801.393 60.7742 794.786 67.3805 794.786 75.5297C794.786 83.679 801.393 90.2853 809.542 90.2853Z" stroke="#3F3D56" stroke-width="2" stroke-miterlimit="10"/>
<path d="M152 770.178C235.947 770.178 304 757.642 304 742.178C304 726.714 235.947 714.178 152 714.178C68.0527 714.178 0 726.714 0 742.178C0 757.642 68.0527 770.178 152 770.178Z" fill="#F2F2F2"/>
<path d="M256.389 493.658L229.272 507.339L231.027 510.834L258.143 497.153L256.389 493.658Z" fill="#C4321D"/>
<path d="M251.98 468.211L250.762 475.521C250.762 475.521 252.589 526.077 239.189 510.24C225.788 494.403 234.925 473.084 234.925 473.084L238.58 466.993L251.98 468.211Z" fill="#FBBEBE"/>
<path d="M174.013 234.31C174.013 234.31 171.577 259.893 170.359 261.112C169.14 262.33 188.632 285.476 188.632 285.476L205.687 269.639C205.687 269.639 204.469 246.493 208.124 241.62C211.778 236.747 174.013 234.31 174.013 234.31Z" fill="#FBBEBE"/>
<path opacity="0.1" d="M174.013 234.31C174.013 234.31 171.577 259.893 170.359 261.112C169.14 262.33 188.632 285.476 188.632 285.476L205.687 269.639C205.687 269.639 204.469 246.493 208.124 241.62C211.778 236.747 174.013 234.31 174.013 234.31Z" fill="black"/>
<path d="M128.939 700.894V722.822L120.411 724.041L108.229 720.386L111.883 697.239L128.939 700.894Z" fill="#3F3D56"/>
<path d="M117.974 711.858C117.974 711.858 114.32 702.112 108.229 703.33C102.137 704.549 100.919 711.858 100.919 711.858C100.919 711.858 96.0462 730.132 88.7368 736.223C81.4274 742.314 74.118 758.151 88.7368 760.588C103.356 763.024 115.538 756.933 115.538 755.715C115.538 754.496 119.193 747.187 125.284 745.969C131.375 744.75 136.248 743.532 136.248 738.659C136.248 733.786 132.593 728.913 132.593 728.913C132.593 728.913 131.375 705.805 128.939 708.832C127.254 711.223 126.015 713.899 125.284 716.731L117.974 711.858Z" fill="#2F2E41"/>
<path d="M181.323 689.93L176.45 708.203L188.632 710.64L194.723 704.549L195.941 688.712L181.323 689.93Z" fill="#3F3D56"/>
<path d="M180.104 705.767C180.104 705.767 184.977 702.112 187.414 702.112H191.068C191.068 702.112 191.068 693.585 197.16 693.585C203.251 693.585 202.033 699.676 202.033 699.676C202.033 699.676 215.433 720.386 219.088 724.041C222.743 727.695 242.234 738.659 226.397 743.532C210.56 748.405 199.596 748.405 192.287 739.878C192.287 739.878 184.977 736.223 180.104 736.223C175.231 736.223 169.14 733.786 169.14 730.132C169.14 726.477 172.795 719.168 172.795 719.168C172.795 719.168 175.231 697.239 176.45 699.676C177.668 702.112 180.104 705.767 180.104 705.767Z" fill="#2F2E41"/>
<path d="M127.72 409.736V449.938C127.72 449.938 114.32 527.905 114.32 553.488C114.32 579.071 93.6097 700.894 103.356 703.331C113.102 705.767 136.248 709.422 137.466 705.767C138.684 702.112 147.212 586.38 148.43 585.162C149.649 583.944 175.231 487.703 175.231 487.703L180.104 488.921L182.541 598.562C182.541 598.562 170.359 697.239 176.45 697.239C182.541 697.239 208.124 696.021 208.124 688.712C208.124 681.402 221.524 546.178 221.524 546.178C221.524 546.178 237.361 438.974 231.27 428.01C225.179 417.046 225.179 410.954 225.179 410.954L127.72 409.736Z" fill="#2F2E41"/>
<path d="M194.114 253.193C207.57 253.193 218.479 242.285 218.479 228.828C218.479 215.372 207.57 204.464 194.114 204.464C180.658 204.464 169.749 215.372 169.749 228.828C169.749 242.285 180.658 253.193 194.114 253.193Z" fill="#FBBEBE"/>
<path d="M188.632 270.857C188.632 270.857 173.404 258.066 172.186 253.193C172.186 253.193 164.267 261.112 164.267 262.33C164.267 263.548 130.157 267.203 121.629 276.949C113.102 286.694 105.792 307.404 105.792 307.404L126.502 346.388C126.502 346.388 127.72 368.316 127.72 370.753C127.72 373.189 121.629 412.173 124.066 413.391C126.502 414.609 150.867 426.791 171.577 424.355C192.287 421.918 212.997 418.264 219.088 418.264C225.179 418.264 230.052 420.7 230.052 418.264C230.052 415.827 226.397 410.954 226.397 408.518C226.397 406.081 225.179 399.99 225.179 396.336C225.179 392.681 222.743 386.59 222.743 381.717C222.743 376.844 249.544 311.059 249.544 311.059C249.544 311.059 248.326 290.349 228.834 280.603C209.342 270.857 206.906 267.203 206.906 267.203C206.906 267.203 206.526 259.893 205.497 259.893C204.469 259.893 200.814 270.857 191.068 272.076L188.632 270.857Z" fill="#D0CDE1"/>
<path d="M122.847 432.883L131.375 446.283L153.303 441.41L137.466 423.137L122.847 432.883Z" fill="#FBBEBE"/>
<path d="M242.234 301.313L249.544 311.059C249.544 311.059 264.163 381.717 261.726 407.3C259.29 432.883 256.853 452.374 256.853 452.374C256.853 452.374 261.726 470.648 258.071 470.648C254.417 470.648 232.488 471.866 232.488 468.211C232.488 464.557 234.925 441.41 234.925 441.41L228.834 387.808L215.433 369.534L242.234 301.313Z" fill="#D0CDE1"/>
<path d="M177.565 217C179.059 216.367 180.785 216.88 182.385 216.61C184.263 216.293 185.944 214.901 187.84 215.077C188.739 215.244 189.612 215.527 190.438 215.92C190.852 216.115 191.301 216.224 191.758 216.24C192.216 216.256 192.671 216.18 193.098 216.016C193.302 215.921 193.482 215.783 193.625 215.61C193.768 215.437 193.872 215.235 193.927 215.017C193.982 214.8 193.989 214.573 193.945 214.353C193.902 214.133 193.811 213.925 193.677 213.745C195.282 213.603 196.799 212.95 198.004 211.882C198.245 211.632 198.524 211.423 198.83 211.262C199.188 211.169 199.561 211.15 199.926 211.207C200.291 211.264 200.64 211.395 200.953 211.593L203.74 212.878C204.368 213.1 204.921 213.495 205.333 214.017C205.665 214.534 205.73 215.23 206.199 215.625C206.799 216.13 207.694 215.883 208.477 215.933C209.187 216.002 209.847 216.329 210.331 216.853C210.816 217.376 211.092 218.059 211.106 218.773C211.095 219.591 210.798 220.594 211.445 221.095C211.82 221.385 212.353 221.339 212.792 221.517C213.932 221.98 213.936 223.566 213.768 224.784C213.6 226.003 213.683 227.61 214.854 227.985C215.679 228.249 216.522 227.686 217.378 227.56C218.671 227.371 219.867 228.179 221.017 228.798C222.168 229.416 223.697 229.834 224.694 228.99C225.622 228.205 225.562 226.768 225.307 225.58C224.941 223.876 224.339 222.231 223.52 220.693C223.216 220.24 223.038 219.716 223.001 219.172C223.071 218.789 223.221 218.426 223.441 218.105C223.661 217.785 223.947 217.514 224.279 217.312C225.689 216.198 227.311 215.075 227.767 213.337C228.102 212.062 227.725 210.716 227.755 209.397C227.79 207.793 228.428 206.195 228.129 204.619C227.586 201.76 224.406 200.385 222.352 198.324C219.531 195.492 218.615 190.963 215.285 188.751C212.621 186.982 209.136 187.193 206.103 186.181C202.77 185.069 200.088 182.514 196.801 181.274C195.007 180.612 193.088 180.356 191.183 180.523C189.278 180.69 187.434 181.277 185.782 182.241C184.801 182.968 183.706 183.527 182.542 183.896C181.562 184.009 180.571 183.998 179.594 183.861C177.651 183.761 175.715 184.161 173.97 185.022C173.303 185.289 172.747 185.776 172.395 186.403C171.807 187.71 172.662 189.754 171.371 190.379C170.77 190.67 170.06 190.391 169.392 190.406C168.092 190.434 167.093 191.565 166.475 192.708C165.993 193.917 165.3 195.03 164.43 195.998C162.842 197.389 159.957 197.619 159.542 199.689C159.534 200.565 159.584 201.441 159.691 202.311C159.571 204.146 157.607 205.54 157.71 207.375C157.828 209.493 160.518 210.527 161.237 212.522C161.785 214.041 161.064 215.683 160.568 217.22C160.073 218.757 159.923 220.726 161.204 221.71C161.706 222.096 162.351 222.254 162.863 222.626C164.188 223.59 164.171 225.534 164.024 227.166C163.939 227.505 163.939 227.859 164.023 228.198C164.107 228.537 164.272 228.85 164.506 229.11C164.724 229.242 164.969 229.327 165.223 229.357C165.477 229.388 165.734 229.364 165.978 229.287C166.773 229.094 167.521 228.741 168.175 228.248C168.829 227.756 169.376 227.135 169.782 226.424C170.208 225.719 170.294 225.097 171.069 224.723C171.595 224.469 172.234 224.696 172.769 224.366C175.316 222.798 174.439 218.324 177.565 217Z" fill="#2F2E41"/>
<path d="M109.447 303.75L105.792 307.404C105.792 307.404 83.8639 373.189 91.1733 387.808C98.4826 402.427 113.101 438.974 117.974 437.755C122.847 436.537 139.903 425.573 139.903 424.355C139.903 423.137 119.193 389.026 119.193 389.026C119.193 389.026 116.756 381.717 117.974 380.498C119.193 379.28 119.193 380.498 117.974 378.062C116.756 375.626 116.756 378.062 119.193 375.626C121.629 373.189 121.629 373.189 121.629 371.971C121.629 370.753 128.939 340.297 128.939 340.297L109.447 303.75Z" fill="#D0CDE1"/>
<path d="M128.329 446.892L155.131 438.365L158.785 446.892L129.548 452.983L128.329 446.892Z" fill="#2F2E41"/>
<path opacity="0.1" d="M128.329 446.892L155.131 438.365L158.785 446.892L129.548 452.983L128.329 446.892Z" fill="black"/>
<path opacity="0.1" d="M164.876 262.939L185.586 279.994L188.023 276.339L164.876 262.939Z" fill="black"/>
<path opacity="0.1" d="M206.296 267.812L191.678 276.339L192.896 279.994L206.296 267.812Z" fill="black"/>
</g>
<defs>
<clipPath id="clip0">
<rect width="991.14" height="770.178" fill="white"/>
</clipPath>
</defs>
</svg>
