<svg width="404" height="404" viewBox="0 0 404 404" fill="none" xmlns="http://www.w3.org/2000/svg">
<path d="M366.125 25.25H37.875C16.9648 25.25 0 42.2148 0 63.125V340.875C0 361.785 16.9648 378.75 37.875 378.75H366.125C387.035 378.75 404 361.785 404 340.875V63.125C404 42.2148 387.035 25.25 366.125 25.25ZM366.125 336.141C366.125 338.745 363.995 340.875 361.391 340.875H42.6094C40.0055 340.875 37.875 338.745 37.875 336.141V151.5H366.125V336.141Z" fill="black"/>
<path d="M179.938 291.972H185.875V250.778H179.938C176.658 250.778 174 248.225 174 245.075V231.453C174 228.303 176.658 225.75 179.938 225.75H213.188C216.467 225.75 219.125 228.303 219.125 231.453V291.972H225.062C228.342 291.972 231 294.525 231 297.675V311.297C231 314.447 228.342 317 225.062 317H179.938C176.658 317 174 314.447 174 311.297V297.675C174 294.525 176.658 291.972 179.938 291.972ZM202.5 171C190.695 171 181.125 180.192 181.125 191.531C181.125 202.87 190.695 212.062 202.5 212.062C214.305 212.062 223.875 202.87 223.875 191.531C223.875 180.192 214.305 171 202.5 171Z" fill="black"/>
</svg>
