<svg width="369" height="369" viewBox="0 0 369 369" fill="none" xmlns="http://www.w3.org/2000/svg">
<path d="M184.5 5.76562C85.7947 5.76562 5.76562 85.8235 5.76562 184.5C5.76562 283.234 85.7947 363.234 184.5 363.234C283.205 363.234 363.234 283.234 363.234 184.5C363.234 85.8235 283.205 5.76562 184.5 5.76562ZM184.5 328.641C104.839 328.641 40.3594 264.187 40.3594 184.5C40.3594 104.866 104.842 40.3594 184.5 40.3594C264.131 40.3594 328.641 104.841 328.641 184.5C328.641 264.159 264.187 328.641 184.5 328.641ZM261.791 144.717C261.791 193.042 209.597 193.786 209.597 211.644V216.211C209.597 220.987 205.725 224.859 200.949 224.859H168.051C163.275 224.859 159.402 220.987 159.402 216.211V209.97C159.402 184.209 178.933 173.911 193.693 165.636C206.349 158.54 214.106 153.714 214.106 144.318C214.106 131.889 198.251 123.639 185.433 123.639C168.721 123.639 161.006 131.55 150.161 145.238C147.237 148.928 141.901 149.613 138.149 146.768L118.097 131.563C114.416 128.772 113.591 123.588 116.191 119.77C133.219 94.766 154.908 80.7188 188.676 80.7188C224.041 80.7188 261.791 108.325 261.791 144.717ZM214.77 265.219C214.77 281.91 201.191 295.488 184.5 295.488C167.809 295.488 154.23 281.91 154.23 265.219C154.23 248.528 167.809 234.949 184.5 234.949C201.191 234.949 214.77 248.528 214.77 265.219Z" fill="black"/>
</svg>
