<svg width="336" height="315" viewBox="0 0 336 315" fill="none" xmlns="http://www.w3.org/2000/svg">
<path d="M309.15 28H183.85C169.027 28 157 40.0518 157 54.9062V288.094C157 302.948 169.027 315 183.85 315H309.15C323.973 315 336 302.948 336 288.094V54.9062C336 40.0518 323.973 28 309.15 28ZM246.5 297.062C236.599 297.062 228.6 289.047 228.6 279.125C228.6 269.203 236.599 261.188 246.5 261.188C256.401 261.188 264.4 269.203 264.4 279.125C264.4 289.047 256.401 297.062 246.5 297.062ZM309.15 236.523C309.15 240.223 306.129 243.25 302.438 243.25H190.562C186.871 243.25 183.85 240.223 183.85 236.523V61.6328C183.85 57.9332 186.871 54.9062 190.562 54.9062H302.438C306.129 54.9062 309.15 57.9332 309.15 61.6328V236.523Z" fill="black"/>
<path d="M220 138.25H242.286V115.75H220V138.25ZM227.429 123.25H234.857V130.75H227.429V123.25ZM249.714 115.75V138.25H272V115.75H249.714ZM264.571 130.75H257.143V123.25H264.571V130.75ZM220 168.25H242.286V145.75H220V168.25ZM227.429 153.25H234.857V160.75H227.429V153.25ZM268.286 145.75H272V160.75H260.857V157H257.143V168.25H249.714V145.75H260.857V149.5H268.286V145.75ZM268.286 164.5H272V168.25H268.286V164.5ZM260.857 164.5H264.571V168.25H260.857V164.5Z" fill="black"/>
<path d="M0 87.0625H74.5714V12.4375H0V87.0625ZM24.8571 37.3125H49.7143V62.1875H24.8571V37.3125ZM99.4286 12.4375V87.0625H174V12.4375H99.4286ZM149.143 62.1875H124.286V37.3125H149.143V62.1875ZM0 186.562H74.5714V111.938H0V186.562ZM24.8571 136.812H49.7143V161.688H24.8571V136.812ZM161.571 111.938H174V161.688H136.714V149.25H124.286V186.562H99.4286V111.938H136.714V124.375H161.571V111.938ZM161.571 174.125H174V186.562H161.571V174.125ZM136.714 174.125H149.143V186.562H136.714V174.125Z" fill="black"/>
</svg>
