<svg width="500" height="200" viewBox="0 0 500 200" fill="none" xmlns="http://www.w3.org/2000/svg">
<rect width="500" height="200" fill="#C4321D"/>
<path d="M119.284 68.0781C119.502 68.7031 119.612 69.1562 119.612 69.4375C119.612 69.7812 119.518 70.0312 119.331 70.1875C119.174 70.3438 119.002 70.625 118.815 71.0312C118.659 71.375 118.456 71.625 118.206 71.7812C117.987 71.9062 117.752 72.0312 117.502 72.1562C117.284 72.2812 117.065 72.4219 116.846 72.5781C116.627 72.7031 116.456 72.9219 116.331 73.2344C116.112 73.7656 115.784 74.1562 115.346 74.4062C114.94 74.6562 114.487 74.7812 113.987 74.7812C113.487 74.7812 112.987 74.6562 112.487 74.4062C112.018 74.125 111.487 73.7812 110.893 73.375C110.331 72.9688 109.674 72.5312 108.924 72.0625C108.206 71.5625 107.315 71.1094 106.252 70.7031C105.19 70.2969 103.94 69.9688 102.502 69.7188C101.065 69.4375 99.3774 69.2969 97.4399 69.2969C94.6274 69.2969 92.0962 69.7031 89.8462 70.5156C87.6274 71.2969 85.5806 72.6875 83.7056 74.6875C82.4556 76.0312 81.5337 77.4219 80.9399 78.8594C80.3462 80.2656 80.0493 81.625 80.0493 82.9375C80.0493 84.125 80.3149 85.1875 80.8462 86.125C81.4087 87.0625 82.1587 87.9219 83.0962 88.7031C84.0337 89.4531 85.1274 90.1562 86.3774 90.8125C87.6587 91.4375 89.0181 92.0625 90.4556 92.6875C91.9243 93.2812 93.4399 93.875 95.0024 94.4688C96.5962 95.0625 98.1743 95.7031 99.7368 96.3906C102.049 97.4219 104.127 98.5625 105.971 99.8125C107.815 101.031 109.377 102.391 110.659 103.891C111.94 105.391 112.924 107.016 113.612 108.766C114.299 110.516 114.643 112.406 114.643 114.438C114.643 117.031 114.19 119.484 113.284 121.797C112.377 124.078 110.987 126.078 109.112 127.797C107.237 129.516 104.877 130.875 102.034 131.875C99.2212 132.906 95.8931 133.422 92.0493 133.422C89.3618 133.422 87.0024 133.094 84.9712 132.438C82.9399 131.781 81.2212 131 79.8149 130.094C78.4399 129.219 77.3462 128.328 76.5337 127.422C75.7524 126.547 75.2524 125.859 75.0337 125.359C74.8774 125.016 74.7681 124.734 74.7056 124.516C74.6743 124.266 74.6587 124.062 74.6587 123.906C74.6587 123.562 74.7212 123.312 74.8462 123.156C75.0024 123 75.2524 122.656 75.5962 122.125C75.7212 121.906 75.8931 121.75 76.1118 121.656C76.3306 121.531 76.5493 121.422 76.7681 121.328C77.0181 121.203 77.2524 121.062 77.4712 120.906C77.6899 120.75 77.8774 120.516 78.0337 120.203C78.5337 119.172 79.2681 118.656 80.2368 118.656C80.7681 118.656 81.2837 118.844 81.7837 119.219C82.3149 119.562 82.8931 120 83.5181 120.531C84.1431 121.062 84.8462 121.656 85.6274 122.312C86.4399 122.938 87.3931 123.516 88.4868 124.047C89.5806 124.578 90.8306 125.031 92.2368 125.406C93.6743 125.75 95.3462 125.922 97.2524 125.922C99.6274 125.922 101.627 125.688 103.252 125.219C104.877 124.75 106.174 124.109 107.143 123.297C108.143 122.453 108.862 121.469 109.299 120.344C109.737 119.219 109.956 118 109.956 116.688C109.956 115.062 109.643 113.656 109.018 112.469C108.424 111.281 107.581 110.234 106.487 109.328C105.424 108.422 104.143 107.625 102.643 106.938C101.143 106.219 99.4868 105.516 97.6743 104.828C95.8931 104.141 93.9868 103.438 91.9556 102.719C89.9556 101.969 87.9087 101.109 85.8149 100.141C84.1587 99.3906 82.6431 98.5625 81.2681 97.6562C79.8931 96.7188 78.7056 95.6719 77.7056 94.5156C76.7368 93.3594 75.9868 92.0625 75.4556 90.625C74.9243 89.1562 74.6587 87.5 74.6587 85.6562C74.6587 83.4375 74.9868 81.2656 75.6431 79.1406C76.3306 76.9844 77.2837 74.9688 78.5024 73.0938C79.7212 71.1875 81.1743 69.4375 82.8618 67.8438C84.5806 66.25 86.4556 64.875 88.4868 63.7188C90.5181 62.5312 92.6899 61.625 95.0024 61C97.3149 60.3438 99.7056 60.0156 102.174 60.0156C104.893 60.0156 107.284 60.3594 109.346 61.0469C111.409 61.7031 113.143 62.4844 114.549 63.3906C115.956 64.2656 117.049 65.1562 117.831 66.0625C118.612 66.9375 119.096 67.6094 119.284 68.0781ZM150.499 110.688C149.561 113.5 148.686 115.969 147.874 118.094C147.061 120.188 146.249 121.953 145.436 123.391C144.624 124.797 143.749 125.859 142.811 126.578C141.905 127.297 140.889 127.656 139.764 127.656C138.983 127.656 138.327 127.406 137.796 126.906C137.296 126.406 136.874 125.844 136.53 125.219C136.186 124.594 135.921 124 135.733 123.438C135.577 122.844 135.467 122.453 135.405 122.266C135.374 122.203 135.342 122.109 135.311 121.984C135.28 121.859 135.233 121.797 135.171 121.797C135.108 121.797 135.046 121.844 134.983 121.938C134.952 122.031 134.905 122.125 134.842 122.219C134.749 122.438 134.499 122.844 134.092 123.438C133.686 124.031 133.171 124.641 132.546 125.266C131.952 125.891 131.264 126.453 130.483 126.953C129.702 127.422 128.858 127.656 127.952 127.656C127.233 127.656 126.53 127.422 125.842 126.953C125.186 126.484 124.608 125.859 124.108 125.078C123.608 124.266 123.217 123.312 122.936 122.219C122.624 121.125 122.467 119.953 122.467 118.703C122.467 115.984 122.905 113.438 123.78 111.062C124.624 108.656 126.014 106.25 127.952 103.844C128.889 102.688 129.874 101.656 130.905 100.75C131.967 99.8438 132.999 99.0938 133.999 98.5C134.999 97.875 135.952 97.4062 136.858 97.0938C137.796 96.7812 138.592 96.625 139.249 96.625C139.686 96.625 140.124 96.7031 140.561 96.8594C140.999 97.0156 141.389 97.2812 141.733 97.6562C142.077 98.0312 142.342 98.5312 142.53 99.1562C142.749 99.75 142.858 100.484 142.858 101.359C142.858 102.297 142.702 103.312 142.389 104.406C142.108 105.5 141.671 106.531 141.077 107.5C140.514 108.438 139.811 109.219 138.967 109.844C138.124 110.469 137.171 110.781 136.108 110.781C135.452 110.781 135.124 110.531 135.124 110.031C135.124 109.688 135.202 109.125 135.358 108.344C135.546 107.562 135.639 106.812 135.639 106.094C135.639 105.812 135.624 105.484 135.592 105.109C135.561 104.703 135.483 104.312 135.358 103.938C135.233 103.562 135.061 103.25 134.842 103C134.624 102.75 134.327 102.625 133.952 102.625C133.108 102.625 132.374 103.016 131.749 103.797C131.124 104.578 130.592 105.531 130.155 106.656C129.749 107.781 129.436 108.953 129.217 110.172C128.999 111.391 128.889 112.438 128.889 113.312C128.889 114.5 128.983 115.5 129.171 116.312C129.358 117.094 129.608 117.734 129.921 118.234C130.233 118.703 130.592 119.047 130.999 119.266C131.405 119.453 131.827 119.547 132.264 119.547C133.296 119.547 134.217 119.203 135.03 118.516C135.842 117.797 136.546 117.016 137.139 116.172C137.733 115.297 138.217 114.516 138.592 113.828C138.999 113.109 139.327 112.75 139.577 112.75C139.858 112.75 140.046 113.078 140.139 113.734C140.327 115.141 140.53 116.297 140.749 117.203C140.967 118.109 141.186 118.828 141.405 119.359C141.624 119.859 141.842 120.219 142.061 120.438C142.311 120.625 142.561 120.719 142.811 120.719C143.28 120.719 143.749 120.453 144.217 119.922C144.686 119.359 145.155 118.609 145.624 117.672C146.092 116.734 146.577 115.641 147.077 114.391C147.577 113.141 148.108 111.812 148.671 110.406C149.014 109.625 149.421 109.234 149.889 109.234C150.358 109.234 150.592 109.516 150.592 110.078C150.592 110.297 150.561 110.5 150.499 110.688ZM178.995 110.688C178.057 113.5 177.182 115.969 176.37 118.094C175.557 120.188 174.745 121.953 173.932 123.391C173.12 124.797 172.245 125.859 171.307 126.578C170.401 127.297 169.386 127.656 168.261 127.656C167.479 127.656 166.823 127.406 166.292 126.906C165.792 126.406 165.37 125.844 165.026 125.219C164.682 124.594 164.417 124 164.229 123.438C164.073 122.844 163.964 122.453 163.901 122.266C163.87 122.203 163.839 122.109 163.807 121.984C163.776 121.859 163.729 121.797 163.667 121.797C163.604 121.797 163.542 121.844 163.479 121.938C163.448 122.031 163.401 122.125 163.339 122.219C163.245 122.438 162.995 122.844 162.589 123.438C162.182 124.031 161.667 124.641 161.042 125.266C160.448 125.891 159.761 126.453 158.979 126.953C158.198 127.422 157.354 127.656 156.448 127.656C155.729 127.656 155.026 127.422 154.339 126.953C153.682 126.484 153.104 125.859 152.604 125.078C152.104 124.266 151.714 123.312 151.432 122.219C151.12 121.125 150.964 119.953 150.964 118.703C150.964 115.984 151.401 113.438 152.276 111.062C153.12 108.656 154.511 106.25 156.448 103.844C157.386 102.688 158.37 101.656 159.401 100.75C160.464 99.8438 161.495 99.0938 162.495 98.5C163.495 97.875 164.448 97.4062 165.354 97.0938C166.292 96.7812 167.089 96.625 167.745 96.625C168.182 96.625 168.62 96.7031 169.057 96.8594C169.495 97.0156 169.886 97.2812 170.229 97.6562C170.573 98.0312 170.839 98.5312 171.026 99.1562C171.245 99.75 171.354 100.484 171.354 101.359C171.354 102.297 171.198 103.312 170.886 104.406C170.604 105.5 170.167 106.531 169.573 107.5C169.011 108.438 168.307 109.219 167.464 109.844C166.62 110.469 165.667 110.781 164.604 110.781C163.948 110.781 163.62 110.531 163.62 110.031C163.62 109.688 163.698 109.125 163.854 108.344C164.042 107.562 164.136 106.812 164.136 106.094C164.136 105.812 164.12 105.484 164.089 105.109C164.057 104.703 163.979 104.312 163.854 103.938C163.729 103.562 163.557 103.25 163.339 103C163.12 102.75 162.823 102.625 162.448 102.625C161.604 102.625 160.87 103.016 160.245 103.797C159.62 104.578 159.089 105.531 158.651 106.656C158.245 107.781 157.932 108.953 157.714 110.172C157.495 111.391 157.386 112.438 157.386 113.312C157.386 114.5 157.479 115.5 157.667 116.312C157.854 117.094 158.104 117.734 158.417 118.234C158.729 118.703 159.089 119.047 159.495 119.266C159.901 119.453 160.323 119.547 160.761 119.547C161.792 119.547 162.714 119.203 163.526 118.516C164.339 117.797 165.042 117.016 165.636 116.172C166.229 115.297 166.714 114.516 167.089 113.828C167.495 113.109 167.823 112.75 168.073 112.75C168.354 112.75 168.542 113.078 168.636 113.734C168.823 115.141 169.026 116.297 169.245 117.203C169.464 118.109 169.682 118.828 169.901 119.359C170.12 119.859 170.339 120.219 170.557 120.438C170.807 120.625 171.057 120.719 171.307 120.719C171.776 120.719 172.245 120.453 172.714 119.922C173.182 119.359 173.651 118.609 174.12 117.672C174.589 116.734 175.073 115.641 175.573 114.391C176.073 113.141 176.604 111.812 177.167 110.406C177.511 109.625 177.917 109.234 178.386 109.234C178.854 109.234 179.089 109.516 179.089 110.078C179.089 110.297 179.057 110.5 178.995 110.688ZM203.929 110.688C203.21 113.125 202.476 115.375 201.726 117.438C200.976 119.5 200.179 121.281 199.335 122.781C198.491 124.281 197.554 125.453 196.522 126.297C195.522 127.141 194.382 127.562 193.101 127.562C191.538 127.562 190.272 126.781 189.304 125.219C188.366 123.625 187.897 121.531 187.897 118.938C187.897 117.812 187.944 116.75 188.038 115.75C188.163 114.75 188.288 113.781 188.413 112.844C188.569 111.906 188.694 111 188.788 110.125C188.913 109.25 188.976 108.391 188.976 107.547C188.976 106.641 188.866 106.047 188.647 105.766C188.429 105.484 188.147 105.344 187.804 105.344C187.741 105.344 187.679 105.359 187.616 105.391C187.554 105.391 187.429 105.406 187.241 105.438C187.085 105.438 186.835 105.469 186.491 105.531C186.179 105.562 185.741 105.609 185.179 105.672C184.835 106.422 184.554 107.062 184.335 107.594C184.116 108.094 183.929 108.531 183.772 108.906C183.616 109.281 183.476 109.609 183.351 109.891C183.257 110.141 183.163 110.406 183.069 110.688C182.819 111.281 182.601 111.656 182.413 111.812C182.226 111.938 182.007 112 181.757 112C181.569 112 181.413 111.922 181.288 111.766C181.132 111.609 181.054 111.391 181.054 111.109C181.054 110.922 181.101 110.703 181.194 110.453C181.288 110.172 181.397 109.828 181.522 109.422C181.679 108.984 181.835 108.438 181.991 107.781C182.179 107.125 182.366 106.312 182.554 105.344C181.929 105.062 181.397 104.406 180.96 103.375C180.491 102.312 180.257 101.078 180.257 99.6719C180.257 98.5156 180.46 97.3438 180.866 96.1562C181.241 94.9688 181.71 93.8906 182.272 92.9219C182.866 91.9219 183.491 91.1094 184.147 90.4844C184.835 89.8594 185.444 89.5469 185.976 89.5469C186.663 89.5469 187.241 89.9688 187.71 90.8125C188.21 91.625 188.46 92.5625 188.46 93.625C188.46 94.1875 188.397 94.7656 188.272 95.3594C188.147 95.9219 188.007 96.4531 187.851 96.9531C187.726 97.4219 187.601 97.8594 187.476 98.2656C187.351 98.6406 187.288 98.9375 187.288 99.1562C187.288 99.4375 187.397 99.5781 187.616 99.5781C187.772 99.5781 188.054 99.5 188.46 99.3438L190.757 98.3125C191.601 97.9688 192.319 97.7969 192.913 97.7969C193.913 97.7969 194.569 98.1094 194.882 98.7344C195.226 99.3594 195.397 100.281 195.397 101.5C195.397 102.031 195.335 102.969 195.21 104.312C195.085 105.625 194.944 107.094 194.788 108.719C194.663 110.312 194.538 111.906 194.413 113.5C194.319 115.094 194.272 116.391 194.272 117.391C194.272 118.484 194.382 119.297 194.601 119.828C194.851 120.328 195.366 120.578 196.147 120.578C196.71 120.578 197.257 120.25 197.788 119.594C198.351 118.938 198.882 118.109 199.382 117.109C199.882 116.109 200.351 115.016 200.788 113.828C201.257 112.641 201.679 111.5 202.054 110.406C202.335 109.625 202.741 109.234 203.272 109.234C203.772 109.234 204.022 109.516 204.022 110.078C204.022 110.172 204.007 110.266 203.976 110.359C203.976 110.453 203.96 110.562 203.929 110.688ZM216.112 123.672C216.862 123.672 217.519 123.422 218.081 122.922C218.644 122.422 219.112 121.766 219.487 120.953C219.894 120.141 220.222 119.203 220.472 118.141C220.722 117.047 220.909 115.922 221.034 114.766C220.128 114.141 219.237 113.328 218.362 112.328C217.519 111.328 216.753 110.109 216.066 108.672C215.659 107.828 215.362 106.969 215.175 106.094C214.987 105.188 214.894 104.328 214.894 103.516C214.894 102.484 215.034 101.516 215.316 100.609C215.597 99.7031 216.003 98.9219 216.534 98.2656C217.097 97.6094 217.784 97.0938 218.597 96.7188C219.409 96.3125 220.347 96.1094 221.409 96.1094C222.753 96.1094 223.847 96.4375 224.691 97.0938C225.566 97.7188 226.253 98.5312 226.753 99.5312C227.253 100.5 227.597 101.562 227.784 102.719C228.003 103.875 228.112 104.953 228.112 105.953C228.112 107.266 228.019 108.609 227.831 109.984C227.675 111.359 227.409 112.75 227.034 114.156C228.191 114.062 229.222 113.75 230.128 113.219C231.034 112.656 231.8 111.719 232.425 110.406C232.8 109.625 233.191 109.234 233.597 109.234C233.816 109.234 234.003 109.297 234.159 109.422C234.347 109.547 234.441 109.75 234.441 110.031C234.441 110.25 234.394 110.469 234.3 110.688C233.675 112.469 232.628 113.875 231.159 114.906C229.722 115.938 228.112 116.453 226.331 116.453C225.8 117.984 225.144 119.438 224.362 120.812C223.612 122.156 222.722 123.344 221.691 124.375C220.659 125.406 219.487 126.219 218.175 126.812C216.862 127.406 215.409 127.703 213.816 127.703C212.972 127.703 212.019 127.578 210.956 127.328C209.894 127.078 208.894 126.562 207.956 125.781C207.019 124.969 206.237 123.844 205.612 122.406C204.956 120.938 204.628 119 204.628 116.594C204.628 114.625 205.003 112.547 205.753 110.359C206.472 108.172 207.691 106 209.409 103.844C210.066 103.031 210.659 102.453 211.191 102.109C211.753 101.766 212.206 101.594 212.55 101.594C213.237 101.594 213.581 102.016 213.581 102.859C213.581 103.234 213.456 103.703 213.206 104.266C212.956 104.828 212.691 105.547 212.409 106.422C212.128 107.297 211.862 108.344 211.612 109.562C211.362 110.75 211.237 112.156 211.237 113.781C211.237 116.906 211.675 119.344 212.55 121.094C213.456 122.812 214.644 123.672 216.112 123.672ZM221.316 109.891C221.316 106.703 221.019 104.422 220.425 103.047C219.831 101.641 219.175 101.078 218.456 101.359C218.144 101.484 217.956 101.766 217.894 102.203C217.862 102.641 217.847 103.062 217.847 103.469C217.847 104.156 217.941 104.875 218.128 105.625C218.316 106.375 218.55 107.125 218.831 107.875C219.144 108.625 219.503 109.344 219.909 110.031C220.347 110.688 220.8 111.297 221.269 111.859C221.3 111.516 221.316 111.188 221.316 110.875C221.316 110.562 221.316 110.234 221.316 109.891ZM265.661 129.754C265.935 130.008 266.072 130.223 266.072 130.398C266.072 130.633 265.925 130.75 265.632 130.75C265.515 130.75 265.388 130.721 265.251 130.662C265.115 130.623 264.783 130.457 264.255 130.164C263.728 129.871 263.064 129.461 262.263 128.934C261.462 128.406 260.554 127.752 259.538 126.971C258.542 126.189 257.507 125.281 256.433 124.246C255.202 125.223 253.865 126.014 252.419 126.619C250.974 127.225 249.48 127.527 247.937 127.527C246.55 127.527 245.271 127.254 244.099 126.707C242.927 126.16 241.911 125.428 241.052 124.51C240.193 123.592 239.519 122.527 239.031 121.316C238.542 120.105 238.298 118.826 238.298 117.479C238.298 116.17 238.484 114.998 238.855 113.963C239.226 112.908 239.724 111.951 240.349 111.092C240.993 110.232 241.736 109.451 242.575 108.748C243.435 108.045 244.333 107.371 245.271 106.727C244.841 105.32 244.529 103.934 244.333 102.566C244.158 101.199 244.07 99.8125 244.07 98.4062C244.07 97.1758 244.187 95.9844 244.421 94.832C244.675 93.6602 245.085 92.625 245.652 91.7266C246.218 90.8281 246.96 90.1055 247.878 89.5586C248.816 89.0117 249.978 88.7383 251.365 88.7383C252.419 88.7383 253.357 88.9043 254.177 89.2363C255.017 89.5488 255.72 89.998 256.286 90.584C256.853 91.1699 257.283 91.873 257.575 92.6934C257.888 93.4941 258.044 94.373 258.044 95.3301C258.044 96.6582 257.81 97.8301 257.341 98.8457C256.892 99.8418 256.286 100.77 255.525 101.629C254.783 102.469 253.923 103.27 252.947 104.031C251.97 104.793 250.974 105.584 249.958 106.404C250.779 108.533 251.775 110.672 252.947 112.82C254.138 114.949 255.408 117.02 256.755 119.031C257.068 118.387 257.312 117.684 257.488 116.922C257.663 116.141 257.751 115.291 257.751 114.373C257.751 113.514 257.663 112.771 257.488 112.146C257.331 111.502 257.156 110.965 256.96 110.535C256.784 110.086 256.609 109.725 256.433 109.451C256.277 109.178 256.199 108.973 256.199 108.836C256.199 108.602 256.286 108.455 256.462 108.396C256.658 108.318 256.882 108.279 257.136 108.279C257.273 108.279 257.497 108.309 257.81 108.367C258.122 108.406 258.474 108.494 258.865 108.631C259.255 108.768 259.665 108.973 260.095 109.246C260.525 109.5 260.906 109.842 261.238 110.271C261.589 110.701 261.872 111.238 262.087 111.883C262.322 112.527 262.439 113.289 262.439 114.168C262.439 115.34 262.107 116.619 261.443 118.006C260.798 119.393 259.919 120.721 258.806 121.99C259.978 123.572 261.15 125.027 262.322 126.355C263.493 127.664 264.607 128.797 265.661 129.754ZM248.23 124.598C249.148 124.598 250.154 124.402 251.247 124.012C252.361 123.621 253.406 122.996 254.382 122.137C253.835 121.531 253.288 120.896 252.741 120.232C252.214 119.568 251.697 118.865 251.189 118.123C250.115 116.6 249.177 115.145 248.376 113.758C247.595 112.371 246.921 111.014 246.355 109.686C246.238 109.822 246.12 109.949 246.003 110.066C245.886 110.184 245.779 110.311 245.681 110.447C244.743 111.561 244.07 112.723 243.659 113.934C243.249 115.125 243.044 116.307 243.044 117.479C243.044 118.455 243.161 119.383 243.396 120.262C243.63 121.121 243.962 121.873 244.392 122.518C244.841 123.162 245.388 123.67 246.033 124.041C246.677 124.412 247.409 124.598 248.23 124.598ZM247.79 96.9121C247.79 97.9863 247.898 99.1191 248.113 100.311C248.347 101.482 248.669 102.703 249.079 103.973C249.704 103.406 250.3 102.781 250.866 102.098C251.433 101.414 251.931 100.711 252.361 99.9883C252.79 99.2461 253.132 98.4941 253.386 97.7324C253.64 96.9707 253.767 96.2383 253.767 95.5352C253.767 94.8516 253.659 94.2461 253.445 93.7188C253.249 93.1914 252.995 92.7422 252.683 92.3711C252.39 92 252.068 91.7266 251.716 91.5508C251.365 91.3555 251.042 91.2578 250.749 91.2578C250.476 91.2578 250.173 91.3652 249.841 91.5801C249.509 91.7754 249.187 92.0977 248.874 92.5469C248.562 92.9961 248.298 93.582 248.083 94.3047C247.888 95.0078 247.79 95.877 247.79 96.9121ZM315.763 68.0781C315.981 68.7031 316.091 69.1562 316.091 69.4375C316.091 69.7812 315.997 70.0312 315.809 70.1875C315.653 70.3438 315.481 70.625 315.294 71.0312C315.138 71.375 314.934 71.625 314.684 71.7812C314.466 71.9062 314.231 72.0312 313.981 72.1562C313.763 72.2812 313.544 72.4219 313.325 72.5781C313.106 72.7031 312.934 72.9219 312.809 73.2344C312.591 73.7656 312.263 74.1562 311.825 74.4062C311.419 74.6562 310.966 74.7812 310.466 74.7812C309.966 74.7812 309.466 74.6562 308.966 74.4062C308.497 74.125 307.966 73.7812 307.372 73.375C306.809 72.9688 306.153 72.5312 305.403 72.0625C304.684 71.5625 303.794 71.1094 302.731 70.7031C301.669 70.2969 300.419 69.9688 298.981 69.7188C297.544 69.4375 295.856 69.2969 293.919 69.2969C291.106 69.2969 288.575 69.7031 286.325 70.5156C284.106 71.2969 282.059 72.6875 280.184 74.6875C278.934 76.0312 278.013 77.4219 277.419 78.8594C276.825 80.2656 276.528 81.625 276.528 82.9375C276.528 84.125 276.794 85.1875 277.325 86.125C277.888 87.0625 278.638 87.9219 279.575 88.7031C280.513 89.4531 281.606 90.1562 282.856 90.8125C284.138 91.4375 285.497 92.0625 286.934 92.6875C288.403 93.2812 289.919 93.875 291.481 94.4688C293.075 95.0625 294.653 95.7031 296.216 96.3906C298.528 97.4219 300.606 98.5625 302.45 99.8125C304.294 101.031 305.856 102.391 307.138 103.891C308.419 105.391 309.403 107.016 310.091 108.766C310.778 110.516 311.122 112.406 311.122 114.438C311.122 117.031 310.669 119.484 309.763 121.797C308.856 124.078 307.466 126.078 305.591 127.797C303.716 129.516 301.356 130.875 298.513 131.875C295.7 132.906 292.372 133.422 288.528 133.422C285.841 133.422 283.481 133.094 281.45 132.438C279.419 131.781 277.7 131 276.294 130.094C274.919 129.219 273.825 128.328 273.013 127.422C272.231 126.547 271.731 125.859 271.513 125.359C271.356 125.016 271.247 124.734 271.184 124.516C271.153 124.266 271.138 124.062 271.138 123.906C271.138 123.562 271.2 123.312 271.325 123.156C271.481 123 271.731 122.656 272.075 122.125C272.2 121.906 272.372 121.75 272.591 121.656C272.809 121.531 273.028 121.422 273.247 121.328C273.497 121.203 273.731 121.062 273.95 120.906C274.169 120.75 274.356 120.516 274.513 120.203C275.013 119.172 275.747 118.656 276.716 118.656C277.247 118.656 277.763 118.844 278.263 119.219C278.794 119.562 279.372 120 279.997 120.531C280.622 121.062 281.325 121.656 282.106 122.312C282.919 122.938 283.872 123.516 284.966 124.047C286.059 124.578 287.309 125.031 288.716 125.406C290.153 125.75 291.825 125.922 293.731 125.922C296.106 125.922 298.106 125.688 299.731 125.219C301.356 124.75 302.653 124.109 303.622 123.297C304.622 122.453 305.341 121.469 305.778 120.344C306.216 119.219 306.434 118 306.434 116.688C306.434 115.062 306.122 113.656 305.497 112.469C304.903 111.281 304.059 110.234 302.966 109.328C301.903 108.422 300.622 107.625 299.122 106.938C297.622 106.219 295.966 105.516 294.153 104.828C292.372 104.141 290.466 103.438 288.434 102.719C286.434 101.969 284.388 101.109 282.294 100.141C280.638 99.3906 279.122 98.5625 277.747 97.6562C276.372 96.7188 275.184 95.6719 274.184 94.5156C273.216 93.3594 272.466 92.0625 271.934 90.625C271.403 89.1562 271.138 87.5 271.138 85.6562C271.138 83.4375 271.466 81.2656 272.122 79.1406C272.809 76.9844 273.763 74.9688 274.981 73.0938C276.2 71.1875 277.653 69.4375 279.341 67.8438C281.059 66.25 282.934 64.875 284.966 63.7188C286.997 62.5312 289.169 61.625 291.481 61C293.794 60.3438 296.184 60.0156 298.653 60.0156C301.372 60.0156 303.763 60.3594 305.825 61.0469C307.888 61.7031 309.622 62.4844 311.028 63.3906C312.434 64.2656 313.528 65.1562 314.309 66.0625C315.091 66.9375 315.575 67.6094 315.763 68.0781ZM346.978 110.688C346.04 113.5 345.165 115.969 344.353 118.094C343.54 120.188 342.728 121.953 341.915 123.391C341.103 124.797 340.228 125.859 339.29 126.578C338.384 127.297 337.368 127.656 336.243 127.656C335.462 127.656 334.806 127.406 334.274 126.906C333.774 126.406 333.353 125.844 333.009 125.219C332.665 124.594 332.399 124 332.212 123.438C332.056 122.844 331.946 122.453 331.884 122.266C331.853 122.203 331.821 122.109 331.79 121.984C331.759 121.859 331.712 121.797 331.649 121.797C331.587 121.797 331.524 121.844 331.462 121.938C331.431 122.031 331.384 122.125 331.321 122.219C331.228 122.438 330.978 122.844 330.571 123.438C330.165 124.031 329.649 124.641 329.024 125.266C328.431 125.891 327.743 126.453 326.962 126.953C326.181 127.422 325.337 127.656 324.431 127.656C323.712 127.656 323.009 127.422 322.321 126.953C321.665 126.484 321.087 125.859 320.587 125.078C320.087 124.266 319.696 123.312 319.415 122.219C319.103 121.125 318.946 119.953 318.946 118.703C318.946 115.984 319.384 113.438 320.259 111.062C321.103 108.656 322.493 106.25 324.431 103.844C325.368 102.688 326.353 101.656 327.384 100.75C328.446 99.8438 329.478 99.0938 330.478 98.5C331.478 97.875 332.431 97.4062 333.337 97.0938C334.274 96.7812 335.071 96.625 335.728 96.625C336.165 96.625 336.603 96.7031 337.04 96.8594C337.478 97.0156 337.868 97.2812 338.212 97.6562C338.556 98.0312 338.821 98.5312 339.009 99.1562C339.228 99.75 339.337 100.484 339.337 101.359C339.337 102.297 339.181 103.312 338.868 104.406C338.587 105.5 338.149 106.531 337.556 107.5C336.993 108.438 336.29 109.219 335.446 109.844C334.603 110.469 333.649 110.781 332.587 110.781C331.931 110.781 331.603 110.531 331.603 110.031C331.603 109.688 331.681 109.125 331.837 108.344C332.024 107.562 332.118 106.812 332.118 106.094C332.118 105.812 332.103 105.484 332.071 105.109C332.04 104.703 331.962 104.312 331.837 103.938C331.712 103.562 331.54 103.25 331.321 103C331.103 102.75 330.806 102.625 330.431 102.625C329.587 102.625 328.853 103.016 328.228 103.797C327.603 104.578 327.071 105.531 326.634 106.656C326.228 107.781 325.915 108.953 325.696 110.172C325.478 111.391 325.368 112.438 325.368 113.312C325.368 114.5 325.462 115.5 325.649 116.312C325.837 117.094 326.087 117.734 326.399 118.234C326.712 118.703 327.071 119.047 327.478 119.266C327.884 119.453 328.306 119.547 328.743 119.547C329.774 119.547 330.696 119.203 331.509 118.516C332.321 117.797 333.024 117.016 333.618 116.172C334.212 115.297 334.696 114.516 335.071 113.828C335.478 113.109 335.806 112.75 336.056 112.75C336.337 112.75 336.524 113.078 336.618 113.734C336.806 115.141 337.009 116.297 337.228 117.203C337.446 118.109 337.665 118.828 337.884 119.359C338.103 119.859 338.321 120.219 338.54 120.438C338.79 120.625 339.04 120.719 339.29 120.719C339.759 120.719 340.228 120.453 340.696 119.922C341.165 119.359 341.634 118.609 342.103 117.672C342.571 116.734 343.056 115.641 343.556 114.391C344.056 113.141 344.587 111.812 345.149 110.406C345.493 109.625 345.899 109.234 346.368 109.234C346.837 109.234 347.071 109.516 347.071 110.078C347.071 110.297 347.04 110.5 346.978 110.688ZM375.474 110.688C374.536 113.5 373.661 115.969 372.849 118.094C372.036 120.188 371.224 121.953 370.411 123.391C369.599 124.797 368.724 125.859 367.786 126.578C366.88 127.297 365.864 127.656 364.739 127.656C363.958 127.656 363.302 127.406 362.771 126.906C362.271 126.406 361.849 125.844 361.505 125.219C361.161 124.594 360.896 124 360.708 123.438C360.552 122.844 360.443 122.453 360.38 122.266C360.349 122.203 360.318 122.109 360.286 121.984C360.255 121.859 360.208 121.797 360.146 121.797C360.083 121.797 360.021 121.844 359.958 121.938C359.927 122.031 359.88 122.125 359.818 122.219C359.724 122.438 359.474 122.844 359.068 123.438C358.661 124.031 358.146 124.641 357.521 125.266C356.927 125.891 356.239 126.453 355.458 126.953C354.677 127.422 353.833 127.656 352.927 127.656C352.208 127.656 351.505 127.422 350.818 126.953C350.161 126.484 349.583 125.859 349.083 125.078C348.583 124.266 348.193 123.312 347.911 122.219C347.599 121.125 347.443 119.953 347.443 118.703C347.443 115.984 347.88 113.438 348.755 111.062C349.599 108.656 350.989 106.25 352.927 103.844C353.864 102.688 354.849 101.656 355.88 100.75C356.943 99.8438 357.974 99.0938 358.974 98.5C359.974 97.875 360.927 97.4062 361.833 97.0938C362.771 96.7812 363.568 96.625 364.224 96.625C364.661 96.625 365.099 96.7031 365.536 96.8594C365.974 97.0156 366.364 97.2812 366.708 97.6562C367.052 98.0312 367.318 98.5312 367.505 99.1562C367.724 99.75 367.833 100.484 367.833 101.359C367.833 102.297 367.677 103.312 367.364 104.406C367.083 105.5 366.646 106.531 366.052 107.5C365.489 108.438 364.786 109.219 363.943 109.844C363.099 110.469 362.146 110.781 361.083 110.781C360.427 110.781 360.099 110.531 360.099 110.031C360.099 109.688 360.177 109.125 360.333 108.344C360.521 107.562 360.614 106.812 360.614 106.094C360.614 105.812 360.599 105.484 360.568 105.109C360.536 104.703 360.458 104.312 360.333 103.938C360.208 103.562 360.036 103.25 359.818 103C359.599 102.75 359.302 102.625 358.927 102.625C358.083 102.625 357.349 103.016 356.724 103.797C356.099 104.578 355.568 105.531 355.13 106.656C354.724 107.781 354.411 108.953 354.193 110.172C353.974 111.391 353.864 112.438 353.864 113.312C353.864 114.5 353.958 115.5 354.146 116.312C354.333 117.094 354.583 117.734 354.896 118.234C355.208 118.703 355.568 119.047 355.974 119.266C356.38 119.453 356.802 119.547 357.239 119.547C358.271 119.547 359.193 119.203 360.005 118.516C360.818 117.797 361.521 117.016 362.114 116.172C362.708 115.297 363.193 114.516 363.568 113.828C363.974 113.109 364.302 112.75 364.552 112.75C364.833 112.75 365.021 113.078 365.114 113.734C365.302 115.141 365.505 116.297 365.724 117.203C365.943 118.109 366.161 118.828 366.38 119.359C366.599 119.859 366.818 120.219 367.036 120.438C367.286 120.625 367.536 120.719 367.786 120.719C368.255 120.719 368.724 120.453 369.193 119.922C369.661 119.359 370.13 118.609 370.599 117.672C371.068 116.734 371.552 115.641 372.052 114.391C372.552 113.141 373.083 111.812 373.646 110.406C373.989 109.625 374.396 109.234 374.864 109.234C375.333 109.234 375.568 109.516 375.568 110.078C375.568 110.297 375.536 110.5 375.474 110.688ZM400.408 110.688C399.689 113.125 398.954 115.375 398.204 117.438C397.454 119.5 396.658 121.281 395.814 122.781C394.97 124.281 394.033 125.453 393.001 126.297C392.001 127.141 390.861 127.562 389.579 127.562C388.017 127.562 386.751 126.781 385.783 125.219C384.845 123.625 384.376 121.531 384.376 118.938C384.376 117.812 384.423 116.75 384.517 115.75C384.642 114.75 384.767 113.781 384.892 112.844C385.048 111.906 385.173 111 385.267 110.125C385.392 109.25 385.454 108.391 385.454 107.547C385.454 106.641 385.345 106.047 385.126 105.766C384.908 105.484 384.626 105.344 384.283 105.344C384.22 105.344 384.158 105.359 384.095 105.391C384.033 105.391 383.908 105.406 383.72 105.438C383.564 105.438 383.314 105.469 382.97 105.531C382.658 105.562 382.22 105.609 381.658 105.672C381.314 106.422 381.033 107.062 380.814 107.594C380.595 108.094 380.408 108.531 380.251 108.906C380.095 109.281 379.954 109.609 379.829 109.891C379.736 110.141 379.642 110.406 379.548 110.688C379.298 111.281 379.079 111.656 378.892 111.812C378.704 111.938 378.486 112 378.236 112C378.048 112 377.892 111.922 377.767 111.766C377.611 111.609 377.533 111.391 377.533 111.109C377.533 110.922 377.579 110.703 377.673 110.453C377.767 110.172 377.876 109.828 378.001 109.422C378.158 108.984 378.314 108.438 378.47 107.781C378.658 107.125 378.845 106.312 379.033 105.344C378.408 105.062 377.876 104.406 377.439 103.375C376.97 102.312 376.736 101.078 376.736 99.6719C376.736 98.5156 376.939 97.3438 377.345 96.1562C377.72 94.9688 378.189 93.8906 378.751 92.9219C379.345 91.9219 379.97 91.1094 380.626 90.4844C381.314 89.8594 381.923 89.5469 382.454 89.5469C383.142 89.5469 383.72 89.9688 384.189 90.8125C384.689 91.625 384.939 92.5625 384.939 93.625C384.939 94.1875 384.876 94.7656 384.751 95.3594C384.626 95.9219 384.486 96.4531 384.329 96.9531C384.204 97.4219 384.079 97.8594 383.954 98.2656C383.829 98.6406 383.767 98.9375 383.767 99.1562C383.767 99.4375 383.876 99.5781 384.095 99.5781C384.251 99.5781 384.533 99.5 384.939 99.3438L387.236 98.3125C388.079 97.9688 388.798 97.7969 389.392 97.7969C390.392 97.7969 391.048 98.1094 391.361 98.7344C391.704 99.3594 391.876 100.281 391.876 101.5C391.876 102.031 391.814 102.969 391.689 104.312C391.564 105.625 391.423 107.094 391.267 108.719C391.142 110.312 391.017 111.906 390.892 113.5C390.798 115.094 390.751 116.391 390.751 117.391C390.751 118.484 390.861 119.297 391.079 119.828C391.329 120.328 391.845 120.578 392.626 120.578C393.189 120.578 393.736 120.25 394.267 119.594C394.829 118.938 395.361 118.109 395.861 117.109C396.361 116.109 396.829 115.016 397.267 113.828C397.736 112.641 398.158 111.5 398.533 110.406C398.814 109.625 399.22 109.234 399.751 109.234C400.251 109.234 400.501 109.516 400.501 110.078C400.501 110.172 400.486 110.266 400.454 110.359C400.454 110.453 400.439 110.562 400.408 110.688ZM412.591 123.672C413.341 123.672 413.998 123.422 414.56 122.922C415.123 122.422 415.591 121.766 415.966 120.953C416.373 120.141 416.701 119.203 416.951 118.141C417.201 117.047 417.388 115.922 417.513 114.766C416.607 114.141 415.716 113.328 414.841 112.328C413.998 111.328 413.232 110.109 412.544 108.672C412.138 107.828 411.841 106.969 411.654 106.094C411.466 105.188 411.373 104.328 411.373 103.516C411.373 102.484 411.513 101.516 411.794 100.609C412.076 99.7031 412.482 98.9219 413.013 98.2656C413.576 97.6094 414.263 97.0938 415.076 96.7188C415.888 96.3125 416.826 96.1094 417.888 96.1094C419.232 96.1094 420.326 96.4375 421.169 97.0938C422.044 97.7188 422.732 98.5312 423.232 99.5312C423.732 100.5 424.076 101.562 424.263 102.719C424.482 103.875 424.591 104.953 424.591 105.953C424.591 107.266 424.498 108.609 424.31 109.984C424.154 111.359 423.888 112.75 423.513 114.156C424.669 114.062 425.701 113.75 426.607 113.219C427.513 112.656 428.279 111.719 428.904 110.406C429.279 109.625 429.669 109.234 430.076 109.234C430.294 109.234 430.482 109.297 430.638 109.422C430.826 109.547 430.919 109.75 430.919 110.031C430.919 110.25 430.873 110.469 430.779 110.688C430.154 112.469 429.107 113.875 427.638 114.906C426.201 115.938 424.591 116.453 422.81 116.453C422.279 117.984 421.623 119.438 420.841 120.812C420.091 122.156 419.201 123.344 418.169 124.375C417.138 125.406 415.966 126.219 414.654 126.812C413.341 127.406 411.888 127.703 410.294 127.703C409.451 127.703 408.498 127.578 407.435 127.328C406.373 127.078 405.373 126.562 404.435 125.781C403.498 124.969 402.716 123.844 402.091 122.406C401.435 120.938 401.107 119 401.107 116.594C401.107 114.625 401.482 112.547 402.232 110.359C402.951 108.172 404.169 106 405.888 103.844C406.544 103.031 407.138 102.453 407.669 102.109C408.232 101.766 408.685 101.594 409.029 101.594C409.716 101.594 410.06 102.016 410.06 102.859C410.06 103.234 409.935 103.703 409.685 104.266C409.435 104.828 409.169 105.547 408.888 106.422C408.607 107.297 408.341 108.344 408.091 109.562C407.841 110.75 407.716 112.156 407.716 113.781C407.716 116.906 408.154 119.344 409.029 121.094C409.935 122.812 411.123 123.672 412.591 123.672ZM417.794 109.891C417.794 106.703 417.498 104.422 416.904 103.047C416.31 101.641 415.654 101.078 414.935 101.359C414.623 101.484 414.435 101.766 414.373 102.203C414.341 102.641 414.326 103.062 414.326 103.469C414.326 104.156 414.419 104.875 414.607 105.625C414.794 106.375 415.029 107.125 415.31 107.875C415.623 108.625 415.982 109.344 416.388 110.031C416.826 110.688 417.279 111.297 417.748 111.859C417.779 111.516 417.794 111.188 417.794 110.875C417.794 110.562 417.794 110.234 417.794 109.891Z" fill="white"/>
</svg>
